<svg width="1782" height="372" viewBox="0 0 1782 372" fill="none" xmlns="http://www.w3.org/2000/svg">
<g opacity="0.15">
<path d="M74.7394 1.13675H58.1879C58.1879 1.13675 52.3666 6.13627 46.0884 16.9803C39.8103 27.8244 6.7074 79.191 1.05685 93.5966H17.0376C17.0376 93.5966 22.0871 84.1924 25.5418 78.6202" stroke="white" stroke-miterlimit="10"/>
<path d="M48.4968 51.3613H31.8882L58.2907 93.7331H74.8421L48.4968 51.3613Z" stroke="white"/>
<path d="M36.7397 31.74C30.1077 23.2589 17.6199 1 17.6199 1H1L28.4526 45.0839" stroke="white"/>
<path d="M74.7394 93.5957H58.1879C58.1879 93.5957 52.3666 98.5952 46.0884 109.439C39.8103 120.283 6.7074 171.65 1.05685 186.056H17.0376C17.0376 186.056 22.0871 176.651 25.5418 171.079" stroke="white" stroke-miterlimit="10"/>
<path d="M48.4968 143.82H31.8882L58.2907 186.192H74.8421L48.4968 143.82Z" stroke="white"/>
<path d="M36.7397 124.199C30.1077 115.718 17.6199 93.459 17.6199 93.459H1L28.4526 137.543" stroke="white"/>
<path d="M148.936 1.13675H132.384C132.384 1.13675 126.563 6.13627 120.285 16.9803C114.007 27.8244 80.9037 79.191 75.2531 93.5966H91.2338C91.2338 93.5966 96.2833 84.1924 99.7381 78.6202" stroke="white" stroke-miterlimit="10"/>
<path d="M122.693 51.3613H106.084L132.487 93.7331H149.038L122.693 51.3613Z" stroke="white"/>
<path d="M110.936 31.74C104.304 23.2589 91.8162 1 91.8162 1H75.1963L102.649 45.0839" stroke="white"/>
<path d="M148.936 93.5957H132.384C132.384 93.5957 126.563 98.5952 120.285 109.439C114.007 120.283 80.9037 171.65 75.2531 186.056H91.2338C91.2338 186.056 96.2833 176.651 99.7381 171.079" stroke="white" stroke-miterlimit="10"/>
<path d="M122.693 143.82H106.084L132.487 186.192H149.038L122.693 143.82Z" stroke="white"/>
<path d="M110.936 124.199C104.304 115.718 91.8162 93.459 91.8162 93.459H75.1963L102.649 137.543" stroke="white"/>
<path d="M223.132 1.13675H206.58C206.58 1.13675 200.759 6.13627 194.481 16.9803C188.203 27.8244 155.1 79.191 149.449 93.5966H165.43C165.43 93.5966 170.479 84.1924 173.934 78.6202" stroke="white" stroke-miterlimit="10"/>
<path d="M196.889 51.3613H180.28L206.683 93.7331H223.234L196.889 51.3613Z" stroke="white"/>
<path d="M185.132 31.74C178.5 23.2589 166.012 1 166.012 1H149.392L176.845 45.0839" stroke="white"/>
<path d="M223.132 93.5957H206.58C206.58 93.5957 200.759 98.5952 194.481 109.439C188.203 120.283 155.1 171.65 149.449 186.056H165.43C165.43 186.056 170.479 176.651 173.934 171.079" stroke="white" stroke-miterlimit="10"/>
<path d="M196.889 143.82H180.28L206.683 186.192H223.234L196.889 143.82Z" stroke="white"/>
<path d="M185.132 124.199C178.5 115.718 166.012 93.459 166.012 93.459H149.392L176.845 137.543" stroke="white"/>
<path d="M297.328 1.13675H280.776C280.776 1.13675 274.955 6.13627 268.677 16.9803C262.399 27.8244 229.296 79.191 223.645 93.5966H239.626C239.626 93.5966 244.676 84.1924 248.13 78.6202" stroke="white" stroke-miterlimit="10"/>
<path d="M271.085 51.3613H254.477L280.879 93.7331H297.431L271.085 51.3613Z" stroke="white"/>
<path d="M259.328 31.74C252.696 23.2589 240.208 1 240.208 1H223.589L251.041 45.0839" stroke="white"/>
<path d="M297.328 93.5957H280.776C280.776 93.5957 274.955 98.5952 268.677 109.439C262.399 120.283 229.296 171.65 223.645 186.056H239.626C239.626 186.056 244.676 176.651 248.13 171.079" stroke="white" stroke-miterlimit="10"/>
<path d="M271.085 143.82H254.477L280.879 186.192H297.431L271.085 143.82Z" stroke="white"/>
<path d="M259.328 124.199C252.696 115.718 240.208 93.459 240.208 93.459H223.589L251.041 137.543" stroke="white"/>
<path d="M371.524 1.13675H354.973C354.973 1.13675 349.151 6.13627 342.873 16.9803C336.595 27.8244 303.492 79.191 297.842 93.5966H313.822C313.822 93.5966 318.872 84.1924 322.327 78.6202" stroke="white" stroke-miterlimit="10"/>
<path d="M345.282 51.3613H328.673L355.075 93.7331H371.627L345.282 51.3613Z" stroke="white"/>
<path d="M333.525 31.74C326.893 23.2589 314.405 1 314.405 1H297.785L325.237 45.0839" stroke="white"/>
<path d="M371.524 93.5957H354.973C354.973 93.5957 349.151 98.5952 342.873 109.439C336.595 120.283 303.492 171.65 297.842 186.056H313.822C313.822 186.056 318.872 176.651 322.327 171.079" stroke="white" stroke-miterlimit="10"/>
<path d="M345.282 143.82H328.673L355.075 186.192H371.627L345.282 143.82Z" stroke="white"/>
<path d="M333.525 124.199C326.893 115.718 314.405 93.459 314.405 93.459H297.785L325.237 137.543" stroke="white"/>
<path d="M445.72 1.13675H429.169C429.169 1.13675 423.347 6.13627 417.069 16.9803C410.791 27.8244 377.688 79.191 372.038 93.5966H388.018C388.018 93.5966 393.068 84.1924 396.523 78.6202" stroke="white" stroke-miterlimit="10"/>
<path d="M419.478 51.3613H402.869L429.271 93.7331H445.823L419.478 51.3613Z" stroke="white"/>
<path d="M407.721 31.74C401.089 23.2589 388.601 1 388.601 1H371.981L399.433 45.0839" stroke="white"/>
<path d="M445.72 93.5957H429.169C429.169 93.5957 423.347 98.5952 417.069 109.439C410.791 120.283 377.688 171.65 372.038 186.056H388.018C388.018 186.056 393.068 176.651 396.523 171.079" stroke="white" stroke-miterlimit="10"/>
<path d="M419.478 143.82H402.869L429.271 186.192H445.823L419.478 143.82Z" stroke="white"/>
<path d="M407.721 124.199C401.089 115.718 388.601 93.459 388.601 93.459H371.981L399.433 137.543" stroke="white"/>
<path d="M519.916 1.13675H503.365C503.365 1.13675 497.544 6.13627 491.266 16.9803C484.987 27.8244 451.884 79.191 446.234 93.5966H462.215C462.215 93.5966 467.264 84.1924 470.719 78.6202" stroke="white" stroke-miterlimit="10"/>
<path d="M493.674 51.3613H477.065L503.468 93.7331H520.019L493.674 51.3613Z" stroke="white"/>
<path d="M481.917 31.74C475.285 23.2589 462.797 1 462.797 1H446.177L473.63 45.0839" stroke="white"/>
<path d="M519.916 93.5957H503.365C503.365 93.5957 497.544 98.5952 491.266 109.439C484.987 120.283 451.884 171.65 446.234 186.056H462.215C462.215 186.056 467.264 176.651 470.719 171.079" stroke="white" stroke-miterlimit="10"/>
<path d="M493.674 143.82H477.065L503.468 186.192H520.019L493.674 143.82Z" stroke="white"/>
<path d="M481.917 124.199C475.285 115.718 462.797 93.459 462.797 93.459H446.177L473.63 137.543" stroke="white"/>
<path d="M594.113 1.13675H577.561C577.561 1.13675 571.74 6.13627 565.462 16.9803C559.184 27.8244 526.081 79.191 520.43 93.5966H536.411C536.411 93.5966 541.46 84.1924 544.915 78.6202" stroke="white" stroke-miterlimit="10"/>
<path d="M567.87 51.3613H551.262L577.664 93.7331H594.215L567.87 51.3613Z" stroke="white"/>
<path d="M556.113 31.74C549.481 23.2589 536.993 1 536.993 1H520.373L547.826 45.0839" stroke="white"/>
<path d="M594.113 93.5957H577.561C577.561 93.5957 571.74 98.5952 565.462 109.439C559.184 120.283 526.081 171.65 520.43 186.056H536.411C536.411 186.056 541.46 176.651 544.915 171.079" stroke="white" stroke-miterlimit="10"/>
<path d="M567.87 143.82H551.262L577.664 186.192H594.215L567.87 143.82Z" stroke="white"/>
<path d="M556.113 124.199C549.481 115.718 536.993 93.459 536.993 93.459H520.373L547.826 137.543" stroke="white"/>
<path d="M668.309 1.13675H651.757C651.757 1.13675 645.936 6.13627 639.658 16.9803C633.38 27.8244 600.277 79.191 594.626 93.5966H610.607C610.607 93.5966 615.656 84.1924 619.111 78.6202" stroke="white" stroke-miterlimit="10"/>
<path d="M642.066 51.3613H625.458L651.86 93.7331H668.411L642.066 51.3613Z" stroke="white"/>
<path d="M630.309 31.74C623.677 23.2589 611.189 1 611.189 1H594.569L622.022 45.0839" stroke="white"/>
<path d="M668.309 93.5957H651.757C651.757 93.5957 645.936 98.5952 639.658 109.439C633.38 120.283 600.277 171.65 594.626 186.056H610.607C610.607 186.056 615.656 176.651 619.111 171.079" stroke="white" stroke-miterlimit="10"/>
<path d="M642.066 143.82H625.458L651.86 186.192H668.411L642.066 143.82Z" stroke="white"/>
<path d="M630.309 124.199C623.677 115.718 611.189 93.459 611.189 93.459H594.569L622.022 137.543" stroke="white"/>
<path d="M742.505 1.13675H725.954C725.954 1.13675 720.132 6.13627 713.854 16.9803C707.576 27.8244 674.473 79.191 668.822 93.5966H684.803C684.803 93.5966 689.853 84.1924 693.307 78.6202" stroke="white" stroke-miterlimit="10"/>
<path d="M716.262 51.3613H699.654L726.056 93.7331H742.608L716.262 51.3613Z" stroke="white"/>
<path d="M704.505 31.74C697.873 23.2589 685.386 1 685.386 1H668.766L696.218 45.0839" stroke="white"/>
<path d="M742.505 93.5957H725.954C725.954 93.5957 720.132 98.5952 713.854 109.439C707.576 120.283 674.473 171.65 668.822 186.056H684.803C684.803 186.056 689.853 176.651 693.307 171.079" stroke="white" stroke-miterlimit="10"/>
<path d="M716.262 143.82H699.654L726.056 186.192H742.608L716.262 143.82Z" stroke="white"/>
<path d="M704.505 124.199C697.873 115.718 685.386 93.459 685.386 93.459H668.766L696.218 137.543" stroke="white"/>
<path d="M816.701 1.13675H800.15C800.15 1.13675 794.328 6.13627 788.05 16.9803C781.772 27.8244 748.669 79.191 743.019 93.5966H758.999C758.999 93.5966 764.049 84.1924 767.504 78.6202" stroke="white" stroke-miterlimit="10"/>
<path d="M790.459 51.3613H773.85L800.253 93.7331H816.804L790.459 51.3613Z" stroke="white"/>
<path d="M778.702 31.74C772.07 23.2589 759.582 1 759.582 1H742.962L770.414 45.0839" stroke="white"/>
<path d="M816.701 93.5957H800.15C800.15 93.5957 794.328 98.5952 788.05 109.439C781.772 120.283 748.669 171.65 743.019 186.056H758.999C758.999 186.056 764.049 176.651 767.504 171.079" stroke="white" stroke-miterlimit="10"/>
<path d="M790.459 143.82H773.85L800.253 186.192H816.804L790.459 143.82Z" stroke="white"/>
<path d="M778.702 124.199C772.07 115.718 759.582 93.459 759.582 93.459H742.962L770.414 137.543" stroke="white"/>
<path d="M890.897 1.13675H874.346C874.346 1.13675 868.524 6.13627 862.246 16.9803C855.968 27.8244 822.865 79.191 817.215 93.5966H833.195C833.195 93.5966 838.245 84.1924 841.7 78.6202" stroke="white" stroke-miterlimit="10"/>
<path d="M864.655 51.3613H848.046L874.449 93.7331H891L864.655 51.3613Z" stroke="white"/>
<path d="M852.898 31.74C846.266 23.2589 833.778 1 833.778 1H817.158L844.61 45.0839" stroke="white"/>
<path d="M890.897 93.5957H874.346C874.346 93.5957 868.524 98.5952 862.246 109.439C855.968 120.283 822.865 171.65 817.215 186.056H833.195C833.195 186.056 838.245 176.651 841.7 171.079" stroke="white" stroke-miterlimit="10"/>
<path d="M864.655 143.82H848.046L874.449 186.192H891L864.655 143.82Z" stroke="white"/>
<path d="M852.898 124.199C846.266 115.718 833.778 93.459 833.778 93.459H817.158L844.61 137.543" stroke="white"/>
<path d="M964.739 1.13675H948.188C948.188 1.13675 942.367 6.13627 936.088 16.9803C929.81 27.8244 896.707 79.191 891.057 93.5966H907.038C907.038 93.5966 912.087 84.1924 915.542 78.6202" stroke="white" stroke-miterlimit="10"/>
<path d="M938.497 51.3613H921.888L948.291 93.7331H964.842L938.497 51.3613Z" stroke="white"/>
<path d="M926.74 31.74C920.108 23.2589 907.62 1 907.62 1H891L918.453 45.0839" stroke="white"/>
<path d="M964.739 93.5957H948.188C948.188 93.5957 942.367 98.5952 936.088 109.439C929.81 120.283 896.707 171.65 891.057 186.056H907.038C907.038 186.056 912.087 176.651 915.542 171.079" stroke="white" stroke-miterlimit="10"/>
<path d="M938.497 143.82H921.888L948.291 186.192H964.842L938.497 143.82Z" stroke="white"/>
<path d="M926.74 124.199C920.108 115.718 907.62 93.459 907.62 93.459H891L918.453 137.543" stroke="white"/>
<path d="M1038.94 1.13675H1022.38C1022.38 1.13675 1016.56 6.13627 1010.28 16.9803C1004.01 27.8244 970.904 79.191 965.253 93.5966H981.234C981.234 93.5966 986.283 84.1924 989.738 78.6202" stroke="white" stroke-miterlimit="10"/>
<path d="M1012.69 51.3613H996.084L1022.49 93.7331H1039.04L1012.69 51.3613Z" stroke="white"/>
<path d="M1000.94 31.74C994.304 23.2589 981.816 1 981.816 1H965.196L992.649 45.0839" stroke="white"/>
<path d="M1038.94 93.5957H1022.38C1022.38 93.5957 1016.56 98.5952 1010.28 109.439C1004.01 120.283 970.904 171.65 965.253 186.056H981.234C981.234 186.056 986.283 176.651 989.738 171.079" stroke="white" stroke-miterlimit="10"/>
<path d="M1012.69 143.82H996.084L1022.49 186.192H1039.04L1012.69 143.82Z" stroke="white"/>
<path d="M1000.94 124.199C994.304 115.718 981.816 93.459 981.816 93.459H965.196L992.649 137.543" stroke="white"/>
<path d="M1113.13 1.13675H1096.58C1096.58 1.13675 1090.76 6.13627 1084.48 16.9803C1078.2 27.8244 1045.1 79.191 1039.45 93.5966H1055.43C1055.43 93.5966 1060.48 84.1924 1063.93 78.6202" stroke="white" stroke-miterlimit="10"/>
<path d="M1086.89 51.3613H1070.28L1096.68 93.7331H1113.23L1086.89 51.3613Z" stroke="white"/>
<path d="M1075.13 31.74C1068.5 23.2589 1056.01 1 1056.01 1H1039.39L1066.84 45.0839" stroke="white"/>
<path d="M1113.13 93.5957H1096.58C1096.58 93.5957 1090.76 98.5952 1084.48 109.439C1078.2 120.283 1045.1 171.65 1039.45 186.056H1055.43C1055.43 186.056 1060.48 176.651 1063.93 171.079" stroke="white" stroke-miterlimit="10"/>
<path d="M1086.89 143.82H1070.28L1096.68 186.192H1113.23L1086.89 143.82Z" stroke="white"/>
<path d="M1075.13 124.199C1068.5 115.718 1056.01 93.459 1056.01 93.459H1039.39L1066.84 137.543" stroke="white"/>
<path d="M1187.33 1.13675H1170.78C1170.78 1.13675 1164.96 6.13627 1158.68 16.9803C1152.4 27.8244 1119.3 79.191 1113.65 93.5966H1129.63C1129.63 93.5966 1134.68 84.1924 1138.13 78.6202" stroke="white" stroke-miterlimit="10"/>
<path d="M1161.09 51.3613H1144.48L1170.88 93.7331H1187.43L1161.09 51.3613Z" stroke="white"/>
<path d="M1149.33 31.74C1142.7 23.2589 1130.21 1 1130.21 1H1113.59L1141.04 45.0839" stroke="white"/>
<path d="M1187.33 93.5957H1170.78C1170.78 93.5957 1164.96 98.5952 1158.68 109.439C1152.4 120.283 1119.3 171.65 1113.65 186.056H1129.63C1129.63 186.056 1134.68 176.651 1138.13 171.079" stroke="white" stroke-miterlimit="10"/>
<path d="M1161.09 143.82H1144.48L1170.88 186.192H1187.43L1161.09 143.82Z" stroke="white"/>
<path d="M1149.33 124.199C1142.7 115.718 1130.21 93.459 1130.21 93.459H1113.59L1141.04 137.543" stroke="white"/>
<path d="M1261.52 1.13675H1244.97C1244.97 1.13675 1239.15 6.13627 1232.87 16.9803C1226.6 27.8244 1193.49 79.191 1187.84 93.5966H1203.82C1203.82 93.5966 1208.87 84.1924 1212.33 78.6202" stroke="white" stroke-miterlimit="10"/>
<path d="M1235.28 51.3613H1218.67L1245.08 93.7331H1261.63L1235.28 51.3613Z" stroke="white"/>
<path d="M1223.52 31.74C1216.89 23.2589 1204.4 1 1204.4 1H1187.78L1215.24 45.0839" stroke="white"/>
<path d="M1261.52 93.5957H1244.97C1244.97 93.5957 1239.15 98.5952 1232.87 109.439C1226.6 120.283 1193.49 171.65 1187.84 186.056H1203.82C1203.82 186.056 1208.87 176.651 1212.33 171.079" stroke="white" stroke-miterlimit="10"/>
<path d="M1235.28 143.82H1218.67L1245.08 186.192H1261.63L1235.28 143.82Z" stroke="white"/>
<path d="M1223.52 124.199C1216.89 115.718 1204.4 93.459 1204.4 93.459H1187.78L1215.24 137.543" stroke="white"/>
<path d="M1335.72 1.13675H1319.17C1319.17 1.13675 1313.35 6.13627 1307.07 16.9803C1300.79 27.8244 1267.69 79.191 1262.04 93.5966H1278.02C1278.02 93.5966 1283.07 84.1924 1286.52 78.6202" stroke="white" stroke-miterlimit="10"/>
<path d="M1309.48 51.3613H1292.87L1319.27 93.7331H1335.82L1309.48 51.3613Z" stroke="white"/>
<path d="M1297.72 31.74C1291.09 23.2589 1278.6 1 1278.6 1H1261.98L1289.43 45.0839" stroke="white"/>
<path d="M1335.72 93.5957H1319.17C1319.17 93.5957 1313.35 98.5952 1307.07 109.439C1300.79 120.283 1267.69 171.65 1262.04 186.056H1278.02C1278.02 186.056 1283.07 176.651 1286.52 171.079" stroke="white" stroke-miterlimit="10"/>
<path d="M1309.48 143.82H1292.87L1319.27 186.192H1335.82L1309.48 143.82Z" stroke="white"/>
<path d="M1297.72 124.199C1291.09 115.718 1278.6 93.459 1278.6 93.459H1261.98L1289.43 137.543" stroke="white"/>
<path d="M1409.92 1.13675H1393.36C1393.36 1.13675 1387.54 6.13627 1381.27 16.9803C1374.99 27.8244 1341.88 79.191 1336.23 93.5966H1352.21C1352.21 93.5966 1357.26 84.1924 1360.72 78.6202" stroke="white" stroke-miterlimit="10"/>
<path d="M1383.67 51.3613H1367.07L1393.47 93.7331H1410.02L1383.67 51.3613Z" stroke="white"/>
<path d="M1371.92 31.74C1365.28 23.2589 1352.8 1 1352.8 1H1336.18L1363.63 45.0839" stroke="white"/>
<path d="M1409.92 93.5957H1393.36C1393.36 93.5957 1387.54 98.5952 1381.27 109.439C1374.99 120.283 1341.88 171.65 1336.23 186.056H1352.21C1352.21 186.056 1357.26 176.651 1360.72 171.079" stroke="white" stroke-miterlimit="10"/>
<path d="M1383.67 143.82H1367.07L1393.47 186.192H1410.02L1383.67 143.82Z" stroke="white"/>
<path d="M1371.92 124.199C1365.28 115.718 1352.8 93.459 1352.8 93.459H1336.18L1363.63 137.543" stroke="white"/>
<path d="M1484.11 1.13675H1467.56C1467.56 1.13675 1461.74 6.13627 1455.46 16.9803C1449.18 27.8244 1416.08 79.191 1410.43 93.5966H1426.41C1426.41 93.5966 1431.46 84.1924 1434.92 78.6202" stroke="white" stroke-miterlimit="10"/>
<path d="M1457.87 51.3613H1441.26L1467.66 93.7331H1484.22L1457.87 51.3613Z" stroke="white"/>
<path d="M1446.11 31.74C1439.48 23.2589 1426.99 1 1426.99 1H1410.37L1437.83 45.0839" stroke="white"/>
<path d="M1484.11 93.5957H1467.56C1467.56 93.5957 1461.74 98.5952 1455.46 109.439C1449.18 120.283 1416.08 171.65 1410.43 186.056H1426.41C1426.41 186.056 1431.46 176.651 1434.92 171.079" stroke="white" stroke-miterlimit="10"/>
<path d="M1457.87 143.82H1441.26L1467.66 186.192H1484.22L1457.87 143.82Z" stroke="white"/>
<path d="M1446.11 124.199C1439.48 115.718 1426.99 93.459 1426.99 93.459H1410.37L1437.83 137.543" stroke="white"/>
<path d="M1558.31 1.13675H1541.76C1541.76 1.13675 1535.94 6.13627 1529.66 16.9803C1523.38 27.8244 1490.28 79.191 1484.63 93.5966H1500.61C1500.61 93.5966 1505.66 84.1924 1509.11 78.6202" stroke="white" stroke-miterlimit="10"/>
<path d="M1532.07 51.3613H1515.46L1541.86 93.7331H1558.41L1532.07 51.3613Z" stroke="white"/>
<path d="M1520.31 31.74C1513.68 23.2589 1501.19 1 1501.19 1H1484.57L1512.02 45.0839" stroke="white"/>
<path d="M1558.31 93.5957H1541.76C1541.76 93.5957 1535.94 98.5952 1529.66 109.439C1523.38 120.283 1490.28 171.65 1484.63 186.056H1500.61C1500.61 186.056 1505.66 176.651 1509.11 171.079" stroke="white" stroke-miterlimit="10"/>
<path d="M1532.07 143.82H1515.46L1541.86 186.192H1558.41L1532.07 143.82Z" stroke="white"/>
<path d="M1520.31 124.199C1513.68 115.718 1501.19 93.459 1501.19 93.459H1484.57L1512.02 137.543" stroke="white"/>
<path d="M1632.51 1.13675H1615.95C1615.95 1.13675 1610.13 6.13627 1603.85 16.9803C1597.58 27.8244 1564.47 79.191 1558.82 93.5966H1574.8C1574.8 93.5966 1579.85 84.1924 1583.31 78.6202" stroke="white" stroke-miterlimit="10"/>
<path d="M1606.26 51.3613H1589.65L1616.06 93.7331H1632.61L1606.26 51.3613Z" stroke="white"/>
<path d="M1594.51 31.74C1587.87 23.2589 1575.39 1 1575.39 1H1558.77L1586.22 45.0839" stroke="white"/>
<path d="M1632.51 93.5957H1615.95C1615.95 93.5957 1610.13 98.5952 1603.85 109.439C1597.58 120.283 1564.47 171.65 1558.82 186.056H1574.8C1574.8 186.056 1579.85 176.651 1583.31 171.079" stroke="white" stroke-miterlimit="10"/>
<path d="M1606.26 143.82H1589.65L1616.06 186.192H1632.61L1606.26 143.82Z" stroke="white"/>
<path d="M1594.51 124.199C1587.87 115.718 1575.39 93.459 1575.39 93.459H1558.77L1586.22 137.543" stroke="white"/>
<path d="M1706.7 1.13675H1690.15C1690.15 1.13675 1684.33 6.13627 1678.05 16.9803C1671.77 27.8244 1638.67 79.191 1633.02 93.5966H1649C1649 93.5966 1654.05 84.1924 1657.5 78.6202" stroke="white" stroke-miterlimit="10"/>
<path d="M1680.46 51.3613H1663.85L1690.25 93.7331H1706.8L1680.46 51.3613Z" stroke="white"/>
<path d="M1668.7 31.74C1662.07 23.2589 1649.58 1 1649.58 1H1632.96L1660.41 45.0839" stroke="white"/>
<path d="M1706.7 93.5957H1690.15C1690.15 93.5957 1684.33 98.5952 1678.05 109.439C1671.77 120.283 1638.67 171.65 1633.02 186.056H1649C1649 186.056 1654.05 176.651 1657.5 171.079" stroke="white" stroke-miterlimit="10"/>
<path d="M1680.46 143.82H1663.85L1690.25 186.192H1706.8L1680.46 143.82Z" stroke="white"/>
<path d="M1668.7 124.199C1662.07 115.718 1649.58 93.459 1649.58 93.459H1632.96L1660.41 137.543" stroke="white"/>
<path d="M1780.9 1.13675H1764.35C1764.35 1.13675 1758.52 6.13627 1752.25 16.9803C1745.97 27.8244 1712.87 79.191 1707.21 93.5966H1723.2C1723.2 93.5966 1728.25 84.1924 1731.7 78.6202" stroke="white" stroke-miterlimit="10"/>
<path d="M1754.65 51.3613H1738.05L1764.45 93.7331H1781L1754.65 51.3613Z" stroke="white"/>
<path d="M1742.9 31.74C1736.27 23.2589 1723.78 1 1723.78 1H1707.16L1734.61 45.0839" stroke="white"/>
<path d="M1780.9 93.5957H1764.35C1764.35 93.5957 1758.52 98.5952 1752.25 109.439C1745.97 120.283 1712.87 171.65 1707.21 186.056H1723.2C1723.2 186.056 1728.25 176.651 1731.7 171.079" stroke="white" stroke-miterlimit="10"/>
<path d="M1754.65 143.82H1738.05L1764.45 186.192H1781L1754.65 143.82Z" stroke="white"/>
<path d="M1742.9 124.199C1736.27 115.718 1723.78 93.459 1723.78 93.459H1707.16L1734.61 137.543" stroke="white"/>
<path d="M74.7394 186.137H58.1879C58.1879 186.137 52.3666 191.136 46.0884 201.98C39.8103 212.824 6.7074 264.191 1.05685 278.597H17.0376C17.0376 278.597 22.0871 269.192 25.5418 263.62" stroke="white" stroke-miterlimit="10"/>
<path d="M48.4968 236.361H31.8882L58.2907 278.733H74.8421L48.4968 236.361Z" stroke="white"/>
<path d="M36.7397 216.74C30.1077 208.259 17.6199 186 17.6199 186H1L28.4526 230.084" stroke="white"/>
<path d="M74.7394 278.596H58.1879C58.1879 278.596 52.3666 283.595 46.0884 294.439C39.8103 305.283 6.7074 356.65 1.05685 371.056H17.0376C17.0376 371.056 22.0871 361.651 25.5418 356.079" stroke="white" stroke-miterlimit="10"/>
<path d="M48.4968 328.82H31.8882L58.2907 371.192H74.8421L48.4968 328.82Z" stroke="white"/>
<path d="M36.7397 309.199C30.1077 300.718 17.6199 278.459 17.6199 278.459H1L28.4526 322.543" stroke="white"/>
<path d="M148.936 186.137H132.384C132.384 186.137 126.563 191.136 120.285 201.98C114.007 212.824 80.9037 264.191 75.2531 278.597H91.2338C91.2338 278.597 96.2833 269.192 99.7381 263.62" stroke="white" stroke-miterlimit="10"/>
<path d="M122.693 236.361H106.084L132.487 278.733H149.038L122.693 236.361Z" stroke="white"/>
<path d="M110.936 216.74C104.304 208.259 91.8162 186 91.8162 186H75.1963L102.649 230.084" stroke="white"/>
<path d="M148.936 278.596H132.384C132.384 278.596 126.563 283.595 120.285 294.439C114.007 305.283 80.9037 356.65 75.2531 371.056H91.2338C91.2338 371.056 96.2833 361.651 99.7381 356.079" stroke="white" stroke-miterlimit="10"/>
<path d="M122.693 328.82H106.084L132.487 371.192H149.038L122.693 328.82Z" stroke="white"/>
<path d="M110.936 309.199C104.304 300.718 91.8162 278.459 91.8162 278.459H75.1963L102.649 322.543" stroke="white"/>
<path d="M223.132 186.137H206.58C206.58 186.137 200.759 191.136 194.481 201.98C188.203 212.824 155.1 264.191 149.449 278.597H165.43C165.43 278.597 170.479 269.192 173.934 263.62" stroke="white" stroke-miterlimit="10"/>
<path d="M196.889 236.361H180.28L206.683 278.733H223.234L196.889 236.361Z" stroke="white"/>
<path d="M185.132 216.74C178.5 208.259 166.012 186 166.012 186H149.392L176.845 230.084" stroke="white"/>
<path d="M223.132 278.596H206.58C206.58 278.596 200.759 283.595 194.481 294.439C188.203 305.283 155.1 356.65 149.449 371.056H165.43C165.43 371.056 170.479 361.651 173.934 356.079" stroke="white" stroke-miterlimit="10"/>
<path d="M196.889 328.82H180.28L206.683 371.192H223.234L196.889 328.82Z" stroke="white"/>
<path d="M185.132 309.199C178.5 300.718 166.012 278.459 166.012 278.459H149.392L176.845 322.543" stroke="white"/>
<path d="M297.328 186.137H280.776C280.776 186.137 274.955 191.136 268.677 201.98C262.399 212.824 229.296 264.191 223.645 278.597H239.626C239.626 278.597 244.676 269.192 248.13 263.62" stroke="white" stroke-miterlimit="10"/>
<path d="M271.085 236.361H254.477L280.879 278.733H297.431L271.085 236.361Z" stroke="white"/>
<path d="M259.328 216.74C252.696 208.259 240.208 186 240.208 186H223.589L251.041 230.084" stroke="white"/>
<path d="M297.328 278.596H280.776C280.776 278.596 274.955 283.595 268.677 294.439C262.399 305.283 229.296 356.65 223.645 371.056H239.626C239.626 371.056 244.676 361.651 248.13 356.079" stroke="white" stroke-miterlimit="10"/>
<path d="M271.085 328.82H254.477L280.879 371.192H297.431L271.085 328.82Z" stroke="white"/>
<path d="M259.328 309.199C252.696 300.718 240.208 278.459 240.208 278.459H223.589L251.041 322.543" stroke="white"/>
<path d="M371.524 186.137H354.973C354.973 186.137 349.151 191.136 342.873 201.98C336.595 212.824 303.492 264.191 297.842 278.597H313.822C313.822 278.597 318.872 269.192 322.327 263.62" stroke="white" stroke-miterlimit="10"/>
<path d="M345.282 236.361H328.673L355.075 278.733H371.627L345.282 236.361Z" stroke="white"/>
<path d="M333.525 216.74C326.893 208.259 314.405 186 314.405 186H297.785L325.237 230.084" stroke="white"/>
<path d="M371.524 278.596H354.973C354.973 278.596 349.151 283.595 342.873 294.439C336.595 305.283 303.492 356.65 297.842 371.056H313.822C313.822 371.056 318.872 361.651 322.327 356.079" stroke="white" stroke-miterlimit="10"/>
<path d="M345.282 328.82H328.673L355.075 371.192H371.627L345.282 328.82Z" stroke="white"/>
<path d="M333.525 309.199C326.893 300.718 314.405 278.459 314.405 278.459H297.785L325.237 322.543" stroke="white"/>
<path d="M445.72 186.137H429.169C429.169 186.137 423.347 191.136 417.069 201.98C410.791 212.824 377.688 264.191 372.038 278.597H388.018C388.018 278.597 393.068 269.192 396.523 263.62" stroke="white" stroke-miterlimit="10"/>
<path d="M419.478 236.361H402.869L429.271 278.733H445.823L419.478 236.361Z" stroke="white"/>
<path d="M407.721 216.74C401.089 208.259 388.601 186 388.601 186H371.981L399.433 230.084" stroke="white"/>
<path d="M445.72 278.596H429.169C429.169 278.596 423.347 283.595 417.069 294.439C410.791 305.283 377.688 356.65 372.038 371.056H388.018C388.018 371.056 393.068 361.651 396.523 356.079" stroke="white" stroke-miterlimit="10"/>
<path d="M419.478 328.82H402.869L429.271 371.192H445.823L419.478 328.82Z" stroke="white"/>
<path d="M407.721 309.199C401.089 300.718 388.601 278.459 388.601 278.459H371.981L399.433 322.543" stroke="white"/>
<path d="M519.916 186.137H503.365C503.365 186.137 497.544 191.136 491.266 201.98C484.987 212.824 451.884 264.191 446.234 278.597H462.215C462.215 278.597 467.264 269.192 470.719 263.62" stroke="white" stroke-miterlimit="10"/>
<path d="M493.674 236.361H477.065L503.468 278.733H520.019L493.674 236.361Z" stroke="white"/>
<path d="M481.917 216.74C475.285 208.259 462.797 186 462.797 186H446.177L473.63 230.084" stroke="white"/>
<path d="M519.916 278.596H503.365C503.365 278.596 497.544 283.595 491.266 294.439C484.987 305.283 451.884 356.65 446.234 371.056H462.215C462.215 371.056 467.264 361.651 470.719 356.079" stroke="white" stroke-miterlimit="10"/>
<path d="M493.674 328.82H477.065L503.468 371.192H520.019L493.674 328.82Z" stroke="white"/>
<path d="M481.917 309.199C475.285 300.718 462.797 278.459 462.797 278.459H446.177L473.63 322.543" stroke="white"/>
<path d="M594.113 186.137H577.561C577.561 186.137 571.74 191.136 565.462 201.98C559.184 212.824 526.081 264.191 520.43 278.597H536.411C536.411 278.597 541.46 269.192 544.915 263.62" stroke="white" stroke-miterlimit="10"/>
<path d="M567.87 236.361H551.262L577.664 278.733H594.215L567.87 236.361Z" stroke="white"/>
<path d="M556.113 216.74C549.481 208.259 536.993 186 536.993 186H520.373L547.826 230.084" stroke="white"/>
<path d="M594.113 278.596H577.561C577.561 278.596 571.74 283.595 565.462 294.439C559.184 305.283 526.081 356.65 520.43 371.056H536.411C536.411 371.056 541.46 361.651 544.915 356.079" stroke="white" stroke-miterlimit="10"/>
<path d="M567.87 328.82H551.262L577.664 371.192H594.215L567.87 328.82Z" stroke="white"/>
<path d="M556.113 309.199C549.481 300.718 536.993 278.459 536.993 278.459H520.373L547.826 322.543" stroke="white"/>
<path d="M668.309 186.137H651.757C651.757 186.137 645.936 191.136 639.658 201.98C633.38 212.824 600.277 264.191 594.626 278.597H610.607C610.607 278.597 615.656 269.192 619.111 263.62" stroke="white" stroke-miterlimit="10"/>
<path d="M642.066 236.361H625.458L651.86 278.733H668.411L642.066 236.361Z" stroke="white"/>
<path d="M630.309 216.74C623.677 208.259 611.189 186 611.189 186H594.569L622.022 230.084" stroke="white"/>
<path d="M668.309 278.596H651.757C651.757 278.596 645.936 283.595 639.658 294.439C633.38 305.283 600.277 356.65 594.626 371.056H610.607C610.607 371.056 615.656 361.651 619.111 356.079" stroke="white" stroke-miterlimit="10"/>
<path d="M642.066 328.82H625.458L651.86 371.192H668.411L642.066 328.82Z" stroke="white"/>
<path d="M630.309 309.199C623.677 300.718 611.189 278.459 611.189 278.459H594.569L622.022 322.543" stroke="white"/>
<path d="M742.505 186.137H725.954C725.954 186.137 720.132 191.136 713.854 201.98C707.576 212.824 674.473 264.191 668.822 278.597H684.803C684.803 278.597 689.853 269.192 693.307 263.62" stroke="white" stroke-miterlimit="10"/>
<path d="M716.262 236.361H699.654L726.056 278.733H742.608L716.262 236.361Z" stroke="white"/>
<path d="M704.505 216.74C697.873 208.259 685.386 186 685.386 186H668.766L696.218 230.084" stroke="white"/>
<path d="M742.505 278.596H725.954C725.954 278.596 720.132 283.595 713.854 294.439C707.576 305.283 674.473 356.65 668.822 371.056H684.803C684.803 371.056 689.853 361.651 693.307 356.079" stroke="white" stroke-miterlimit="10"/>
<path d="M716.262 328.82H699.654L726.056 371.192H742.608L716.262 328.82Z" stroke="white"/>
<path d="M704.505 309.199C697.873 300.718 685.386 278.459 685.386 278.459H668.766L696.218 322.543" stroke="white"/>
<path d="M816.701 186.137H800.15C800.15 186.137 794.328 191.136 788.05 201.98C781.772 212.824 748.669 264.191 743.019 278.597H758.999C758.999 278.597 764.049 269.192 767.504 263.62" stroke="white" stroke-miterlimit="10"/>
<path d="M790.459 236.361H773.85L800.253 278.733H816.804L790.459 236.361Z" stroke="white"/>
<path d="M778.702 216.74C772.07 208.259 759.582 186 759.582 186H742.962L770.414 230.084" stroke="white"/>
<path d="M816.701 278.596H800.15C800.15 278.596 794.328 283.595 788.05 294.439C781.772 305.283 748.669 356.65 743.019 371.056H758.999C758.999 371.056 764.049 361.651 767.504 356.079" stroke="white" stroke-miterlimit="10"/>
<path d="M790.459 328.82H773.85L800.253 371.192H816.804L790.459 328.82Z" stroke="white"/>
<path d="M778.702 309.199C772.07 300.718 759.582 278.459 759.582 278.459H742.962L770.414 322.543" stroke="white"/>
<path d="M890.897 186.137H874.346C874.346 186.137 868.524 191.136 862.246 201.98C855.968 212.824 822.865 264.191 817.215 278.597H833.195C833.195 278.597 838.245 269.192 841.7 263.62" stroke="white" stroke-miterlimit="10"/>
<path d="M864.655 236.361H848.046L874.449 278.733H891L864.655 236.361Z" stroke="white"/>
<path d="M852.898 216.74C846.266 208.259 833.778 186 833.778 186H817.158L844.61 230.084" stroke="white"/>
<path d="M890.897 278.596H874.346C874.346 278.596 868.524 283.595 862.246 294.439C855.968 305.283 822.865 356.65 817.215 371.056H833.195C833.195 371.056 838.245 361.651 841.7 356.079" stroke="white" stroke-miterlimit="10"/>
<path d="M864.655 328.82H848.046L874.449 371.192H891L864.655 328.82Z" stroke="white"/>
<path d="M852.898 309.199C846.266 300.718 833.778 278.459 833.778 278.459H817.158L844.61 322.543" stroke="white"/>
<path d="M964.739 186.137H948.188C948.188 186.137 942.367 191.136 936.088 201.98C929.81 212.824 896.707 264.191 891.057 278.597H907.038C907.038 278.597 912.087 269.192 915.542 263.62" stroke="white" stroke-miterlimit="10"/>
<path d="M938.497 236.361H921.888L948.291 278.733H964.842L938.497 236.361Z" stroke="white"/>
<path d="M926.74 216.74C920.108 208.259 907.62 186 907.62 186H891L918.453 230.084" stroke="white"/>
<path d="M964.739 278.596H948.188C948.188 278.596 942.367 283.595 936.088 294.439C929.81 305.283 896.707 356.65 891.057 371.056H907.038C907.038 371.056 912.087 361.651 915.542 356.079" stroke="white" stroke-miterlimit="10"/>
<path d="M938.497 328.82H921.888L948.291 371.192H964.842L938.497 328.82Z" stroke="white"/>
<path d="M926.74 309.199C920.108 300.718 907.62 278.459 907.62 278.459H891L918.453 322.543" stroke="white"/>
<path d="M1038.94 186.137H1022.38C1022.38 186.137 1016.56 191.136 1010.28 201.98C1004.01 212.824 970.904 264.191 965.253 278.597H981.234C981.234 278.597 986.283 269.192 989.738 263.62" stroke="white" stroke-miterlimit="10"/>
<path d="M1012.69 236.361H996.084L1022.49 278.733H1039.04L1012.69 236.361Z" stroke="white"/>
<path d="M1000.94 216.74C994.304 208.259 981.816 186 981.816 186H965.196L992.649 230.084" stroke="white"/>
<path d="M1038.94 278.596H1022.38C1022.38 278.596 1016.56 283.595 1010.28 294.439C1004.01 305.283 970.904 356.65 965.253 371.056H981.234C981.234 371.056 986.283 361.651 989.738 356.079" stroke="white" stroke-miterlimit="10"/>
<path d="M1012.69 328.82H996.084L1022.49 371.192H1039.04L1012.69 328.82Z" stroke="white"/>
<path d="M1000.94 309.199C994.304 300.718 981.816 278.459 981.816 278.459H965.196L992.649 322.543" stroke="white"/>
<path d="M1113.13 186.137H1096.58C1096.58 186.137 1090.76 191.136 1084.48 201.98C1078.2 212.824 1045.1 264.191 1039.45 278.597H1055.43C1055.43 278.597 1060.48 269.192 1063.93 263.62" stroke="white" stroke-miterlimit="10"/>
<path d="M1086.89 236.361H1070.28L1096.68 278.733H1113.23L1086.89 236.361Z" stroke="white"/>
<path d="M1075.13 216.74C1068.5 208.259 1056.01 186 1056.01 186H1039.39L1066.84 230.084" stroke="white"/>
<path d="M1113.13 278.596H1096.58C1096.58 278.596 1090.76 283.595 1084.48 294.439C1078.2 305.283 1045.1 356.65 1039.45 371.056H1055.43C1055.43 371.056 1060.48 361.651 1063.93 356.079" stroke="white" stroke-miterlimit="10"/>
<path d="M1086.89 328.82H1070.28L1096.68 371.192H1113.23L1086.89 328.82Z" stroke="white"/>
<path d="M1075.13 309.199C1068.5 300.718 1056.01 278.459 1056.01 278.459H1039.39L1066.84 322.543" stroke="white"/>
<path d="M1187.33 186.137H1170.78C1170.78 186.137 1164.96 191.136 1158.68 201.98C1152.4 212.824 1119.3 264.191 1113.65 278.597H1129.63C1129.63 278.597 1134.68 269.192 1138.13 263.62" stroke="white" stroke-miterlimit="10"/>
<path d="M1161.09 236.361H1144.48L1170.88 278.733H1187.43L1161.09 236.361Z" stroke="white"/>
<path d="M1149.33 216.74C1142.7 208.259 1130.21 186 1130.21 186H1113.59L1141.04 230.084" stroke="white"/>
<path d="M1187.33 278.596H1170.78C1170.78 278.596 1164.96 283.595 1158.68 294.439C1152.4 305.283 1119.3 356.65 1113.65 371.056H1129.63C1129.63 371.056 1134.68 361.651 1138.13 356.079" stroke="white" stroke-miterlimit="10"/>
<path d="M1161.09 328.82H1144.48L1170.88 371.192H1187.43L1161.09 328.82Z" stroke="white"/>
<path d="M1149.33 309.199C1142.7 300.718 1130.21 278.459 1130.21 278.459H1113.59L1141.04 322.543" stroke="white"/>
<path d="M1261.52 186.137H1244.97C1244.97 186.137 1239.15 191.136 1232.87 201.98C1226.6 212.824 1193.49 264.191 1187.84 278.597H1203.82C1203.82 278.597 1208.87 269.192 1212.33 263.62" stroke="white" stroke-miterlimit="10"/>
<path d="M1235.28 236.361H1218.67L1245.08 278.733H1261.63L1235.28 236.361Z" stroke="white"/>
<path d="M1223.52 216.74C1216.89 208.259 1204.4 186 1204.4 186H1187.78L1215.24 230.084" stroke="white"/>
<path d="M1261.52 278.596H1244.97C1244.97 278.596 1239.15 283.595 1232.87 294.439C1226.6 305.283 1193.49 356.65 1187.84 371.056H1203.82C1203.82 371.056 1208.87 361.651 1212.33 356.079" stroke="white" stroke-miterlimit="10"/>
<path d="M1235.28 328.82H1218.67L1245.08 371.192H1261.63L1235.28 328.82Z" stroke="white"/>
<path d="M1223.52 309.199C1216.89 300.718 1204.4 278.459 1204.4 278.459H1187.78L1215.24 322.543" stroke="white"/>
<path d="M1335.72 186.137H1319.17C1319.17 186.137 1313.35 191.136 1307.07 201.98C1300.79 212.824 1267.69 264.191 1262.04 278.597H1278.02C1278.02 278.597 1283.07 269.192 1286.52 263.62" stroke="white" stroke-miterlimit="10"/>
<path d="M1309.48 236.361H1292.87L1319.27 278.733H1335.82L1309.48 236.361Z" stroke="white"/>
<path d="M1297.72 216.74C1291.09 208.259 1278.6 186 1278.6 186H1261.98L1289.43 230.084" stroke="white"/>
<path d="M1335.72 278.596H1319.17C1319.17 278.596 1313.35 283.595 1307.07 294.439C1300.79 305.283 1267.69 356.65 1262.04 371.056H1278.02C1278.02 371.056 1283.07 361.651 1286.52 356.079" stroke="white" stroke-miterlimit="10"/>
<path d="M1309.48 328.82H1292.87L1319.27 371.192H1335.82L1309.48 328.82Z" stroke="white"/>
<path d="M1297.72 309.199C1291.09 300.718 1278.6 278.459 1278.6 278.459H1261.98L1289.43 322.543" stroke="white"/>
<path d="M1409.92 186.137H1393.36C1393.36 186.137 1387.54 191.136 1381.27 201.98C1374.99 212.824 1341.88 264.191 1336.23 278.597H1352.21C1352.21 278.597 1357.26 269.192 1360.72 263.62" stroke="white" stroke-miterlimit="10"/>
<path d="M1383.67 236.361H1367.07L1393.47 278.733H1410.02L1383.67 236.361Z" stroke="white"/>
<path d="M1371.92 216.74C1365.28 208.259 1352.8 186 1352.8 186H1336.18L1363.63 230.084" stroke="white"/>
<path d="M1409.92 278.596H1393.36C1393.36 278.596 1387.54 283.595 1381.27 294.439C1374.99 305.283 1341.88 356.65 1336.23 371.056H1352.21C1352.21 371.056 1357.26 361.651 1360.72 356.079" stroke="white" stroke-miterlimit="10"/>
<path d="M1383.67 328.82H1367.07L1393.47 371.192H1410.02L1383.67 328.82Z" stroke="white"/>
<path d="M1371.92 309.199C1365.28 300.718 1352.8 278.459 1352.8 278.459H1336.18L1363.63 322.543" stroke="white"/>
<path d="M1484.11 186.137H1467.56C1467.56 186.137 1461.74 191.136 1455.46 201.98C1449.18 212.824 1416.08 264.191 1410.43 278.597H1426.41C1426.41 278.597 1431.46 269.192 1434.92 263.62" stroke="white" stroke-miterlimit="10"/>
<path d="M1457.87 236.361H1441.26L1467.66 278.733H1484.22L1457.87 236.361Z" stroke="white"/>
<path d="M1446.11 216.74C1439.48 208.259 1426.99 186 1426.99 186H1410.37L1437.83 230.084" stroke="white"/>
<path d="M1484.11 278.596H1467.56C1467.56 278.596 1461.74 283.595 1455.46 294.439C1449.18 305.283 1416.08 356.65 1410.43 371.056H1426.41C1426.41 371.056 1431.46 361.651 1434.92 356.079" stroke="white" stroke-miterlimit="10"/>
<path d="M1457.87 328.82H1441.26L1467.66 371.192H1484.22L1457.87 328.82Z" stroke="white"/>
<path d="M1446.11 309.199C1439.48 300.718 1426.99 278.459 1426.99 278.459H1410.37L1437.83 322.543" stroke="white"/>
<path d="M1558.31 186.137H1541.76C1541.76 186.137 1535.94 191.136 1529.66 201.98C1523.38 212.824 1490.28 264.191 1484.63 278.597H1500.61C1500.61 278.597 1505.66 269.192 1509.11 263.62" stroke="white" stroke-miterlimit="10"/>
<path d="M1532.07 236.361H1515.46L1541.86 278.733H1558.41L1532.07 236.361Z" stroke="white"/>
<path d="M1520.31 216.74C1513.68 208.259 1501.19 186 1501.19 186H1484.57L1512.02 230.084" stroke="white"/>
<path d="M1558.31 278.596H1541.76C1541.76 278.596 1535.94 283.595 1529.66 294.439C1523.38 305.283 1490.28 356.65 1484.63 371.056H1500.61C1500.61 371.056 1505.66 361.651 1509.11 356.079" stroke="white" stroke-miterlimit="10"/>
<path d="M1532.07 328.82H1515.46L1541.86 371.192H1558.41L1532.07 328.82Z" stroke="white"/>
<path d="M1520.31 309.199C1513.68 300.718 1501.19 278.459 1501.19 278.459H1484.57L1512.02 322.543" stroke="white"/>
<path d="M1632.51 186.137H1615.95C1615.95 186.137 1610.13 191.136 1603.85 201.98C1597.58 212.824 1564.47 264.191 1558.82 278.597H1574.8C1574.8 278.597 1579.85 269.192 1583.31 263.62" stroke="white" stroke-miterlimit="10"/>
<path d="M1606.26 236.361H1589.65L1616.06 278.733H1632.61L1606.26 236.361Z" stroke="white"/>
<path d="M1594.51 216.74C1587.87 208.259 1575.39 186 1575.39 186H1558.77L1586.22 230.084" stroke="white"/>
<path d="M1632.51 278.596H1615.95C1615.95 278.596 1610.13 283.595 1603.85 294.439C1597.58 305.283 1564.47 356.65 1558.82 371.056H1574.8C1574.8 371.056 1579.85 361.651 1583.31 356.079" stroke="white" stroke-miterlimit="10"/>
<path d="M1606.26 328.82H1589.65L1616.06 371.192H1632.61L1606.26 328.82Z" stroke="white"/>
<path d="M1594.51 309.199C1587.87 300.718 1575.39 278.459 1575.39 278.459H1558.77L1586.22 322.543" stroke="white"/>
<path d="M1706.7 186.137H1690.15C1690.15 186.137 1684.33 191.136 1678.05 201.98C1671.77 212.824 1638.67 264.191 1633.02 278.597H1649C1649 278.597 1654.05 269.192 1657.5 263.62" stroke="white" stroke-miterlimit="10"/>
<path d="M1680.46 236.361H1663.85L1690.25 278.733H1706.8L1680.46 236.361Z" stroke="white"/>
<path d="M1668.7 216.74C1662.07 208.259 1649.58 186 1649.58 186H1632.96L1660.41 230.084" stroke="white"/>
<path d="M1706.7 278.596H1690.15C1690.15 278.596 1684.33 283.595 1678.05 294.439C1671.77 305.283 1638.67 356.65 1633.02 371.056H1649C1649 371.056 1654.05 361.651 1657.5 356.079" stroke="white" stroke-miterlimit="10"/>
<path d="M1680.46 328.82H1663.85L1690.25 371.192H1706.8L1680.46 328.82Z" stroke="white"/>
<path d="M1668.7 309.199C1662.07 300.718 1649.58 278.459 1649.58 278.459H1632.96L1660.41 322.543" stroke="white"/>
<path d="M1780.9 186.137H1764.35C1764.35 186.137 1758.52 191.136 1752.25 201.98C1745.97 212.824 1712.87 264.191 1707.21 278.597H1723.2C1723.2 278.597 1728.25 269.192 1731.7 263.62" stroke="white" stroke-miterlimit="10"/>
<path d="M1754.65 236.361H1738.05L1764.45 278.733H1781L1754.65 236.361Z" stroke="white"/>
<path d="M1742.9 216.74C1736.27 208.259 1723.78 186 1723.78 186H1707.16L1734.61 230.084" stroke="white"/>
<path d="M1780.9 278.596H1764.35C1764.35 278.596 1758.52 283.595 1752.25 294.439C1745.97 305.283 1712.87 356.65 1707.21 371.056H1723.2C1723.2 371.056 1728.25 361.651 1731.7 356.079" stroke="white" stroke-miterlimit="10"/>
<path d="M1754.65 328.82H1738.05L1764.45 371.192H1781L1754.65 328.82Z" stroke="white"/>
<path d="M1742.9 309.199C1736.27 300.718 1723.78 278.459 1723.78 278.459H1707.16L1734.61 322.543" stroke="white"/>
</g>
</svg>
