<svg width="100" height="48" viewBox="0 0 100 48" fill="none" xmlns="http://www.w3.org/2000/svg">
<g filter="url(#filter0_d_8665_5837)">
<rect x="6" y="4" width="82" height="36" rx="6" fill="#333333"/>
<path d="M29.9863 20.2188C29.8952 19.7721 29.7152 19.3916 29.4463 19.0771C29.1774 18.7627 28.8493 18.5234 28.4619 18.3594C28.0745 18.1953 27.6621 18.1133 27.2246 18.1133C26.623 18.1133 26.0807 18.266 25.5977 18.5713C25.1146 18.8766 24.734 19.3255 24.4561 19.918C24.1781 20.5104 24.0391 21.2214 24.0391 22.0508C24.0391 22.8802 24.1781 23.5911 24.4561 24.1836C24.734 24.776 25.1146 25.2249 25.5977 25.5303C26.0807 25.8356 26.623 25.9883 27.2246 25.9883C27.6621 25.9883 28.0723 25.9062 28.4551 25.7422C28.8379 25.5781 29.166 25.3389 29.4395 25.0244C29.7129 24.71 29.8952 24.334 29.9863 23.8965H31.2168C31.0983 24.5527 30.8522 25.127 30.4785 25.6191C30.1048 26.1113 29.6377 26.4873 29.0771 26.7471C28.5166 27.0068 27.8991 27.1367 27.2246 27.1367C26.377 27.1367 25.6227 26.9294 24.9619 26.5146C24.3011 26.0999 23.7839 25.5075 23.4102 24.7373C23.0365 23.9671 22.8496 23.0716 22.8496 22.0508C22.8496 21.0208 23.0365 20.123 23.4102 19.3574C23.7839 18.5918 24.3011 18.0016 24.9619 17.5869C25.6227 17.1722 26.377 16.9648 27.2246 16.9648C27.89 16.9648 28.5052 17.0947 29.0703 17.3545C29.6354 17.6143 30.1048 17.988 30.4785 18.4756C30.8522 18.9632 31.0983 19.5443 31.2168 20.2188H29.9863ZM35.8242 27.1504C35.1589 27.1504 34.5687 26.9909 34.0537 26.6719C33.5387 26.3529 33.14 25.904 32.8574 25.3252C32.5749 24.7464 32.4336 24.0788 32.4336 23.3223C32.4336 22.5566 32.5749 21.8844 32.8574 21.3057C33.14 20.7269 33.5387 20.278 34.0537 19.959C34.5687 19.64 35.1589 19.4805 35.8242 19.4805C36.4896 19.4805 37.0775 19.64 37.5879 19.959C38.0983 20.278 38.4925 20.7269 38.7705 21.3057C39.0485 21.8844 39.1875 22.5566 39.1875 23.3223C39.1875 24.0788 39.0485 24.7464 38.7705 25.3252C38.4925 25.904 38.0983 26.3529 37.5879 26.6719C37.0775 26.9909 36.4896 27.1504 35.8242 27.1504ZM35.8242 26.1113C36.3073 26.1113 36.7129 25.9837 37.041 25.7285C37.3691 25.4733 37.613 25.1361 37.7725 24.7168C37.932 24.2975 38.0117 23.8327 38.0117 23.3223C38.0117 22.8118 37.932 22.3447 37.7725 21.9209C37.613 21.4971 37.3691 21.1576 37.041 20.9023C36.7129 20.6471 36.3073 20.5195 35.8242 20.5195C35.3411 20.5195 34.9333 20.6471 34.6006 20.9023C34.2679 21.1576 34.0195 21.4971 33.8555 21.9209C33.6914 22.3447 33.6094 22.8118 33.6094 23.3223C33.6094 23.8327 33.6914 24.2975 33.8555 24.7168C34.0195 25.1361 34.2679 25.4733 34.6006 25.7285C34.9333 25.9837 35.3411 26.1113 35.8242 26.1113ZM41.9082 27H40.7324V19.5762H41.8672V20.7383H41.9629C42.1543 20.3372 42.4277 20.0273 42.7832 19.8086C43.1387 19.5898 43.5898 19.4805 44.1367 19.4805C44.6471 19.4805 45.0892 19.583 45.4629 19.7881C45.8366 19.9932 46.126 20.3053 46.3311 20.7246C46.5361 21.1439 46.6387 21.6634 46.6387 22.2832V27H45.4629V22.3652C45.4629 21.9824 45.3968 21.6543 45.2646 21.3809C45.1325 21.1074 44.9411 20.8978 44.6904 20.752C44.4398 20.6061 44.1367 20.5332 43.7812 20.5332C43.4167 20.5332 43.0931 20.6107 42.8105 20.7656C42.528 20.9206 42.307 21.1507 42.1475 21.4561C41.988 21.7614 41.9082 22.1237 41.9082 22.543V27ZM51.7656 20.5605H47.8965V19.5762H51.7656V20.5605ZM50.207 17.7988V24.8672C50.207 25.168 50.2503 25.3981 50.3369 25.5576C50.4235 25.7171 50.5374 25.8265 50.6787 25.8857C50.82 25.945 50.9863 25.9746 51.1777 25.9746C51.4056 25.9746 51.638 25.9655 51.875 25.9473V27.041C51.638 27.0775 51.3646 27.0957 51.0547 27.0957C50.7083 27.0957 50.3802 27.0228 50.0703 26.877C49.7604 26.7311 49.5075 26.5124 49.3115 26.2207C49.1156 25.929 49.0176 25.5781 49.0176 25.168V17.7988H50.207ZM57.8223 23.5547C57.7402 23.5547 57.3438 23.582 56.6328 23.6367L55.8535 23.6914C55.2975 23.7279 54.8669 23.8486 54.5615 24.0537C54.2562 24.2588 54.1035 24.5573 54.1035 24.9492C54.1035 25.2044 54.1696 25.4186 54.3018 25.5918C54.4339 25.765 54.6185 25.8971 54.8555 25.9883C55.0924 26.0794 55.3613 26.125 55.6621 26.125C56.0905 26.125 56.4596 26.0407 56.7695 25.8721C57.0794 25.7035 57.3164 25.4801 57.4805 25.2021C57.6445 24.9242 57.7266 24.6257 57.7266 24.3066V21.9961C57.7266 21.6771 57.665 21.4059 57.542 21.1826C57.4189 20.9593 57.2321 20.7907 56.9814 20.6768C56.7308 20.5628 56.4186 20.5059 56.0449 20.5059C55.5983 20.5059 55.2314 20.597 54.9443 20.7793C54.6572 20.9616 54.4681 21.2031 54.377 21.5039H53.1465C53.2012 21.1029 53.3584 20.7497 53.6182 20.4443C53.8779 20.139 54.222 19.902 54.6504 19.7334C55.0788 19.5648 55.5618 19.4805 56.0996 19.4805C56.528 19.4805 56.9473 19.5443 57.3574 19.6719C57.7676 19.7995 58.1253 20.057 58.4307 20.4443C58.736 20.8317 58.8887 21.3854 58.8887 22.1055V27H57.7266V25.9883H57.6719C57.5807 26.1797 57.4417 26.3643 57.2549 26.542C57.068 26.7197 56.8219 26.8701 56.5166 26.9932C56.2113 27.1162 55.8581 27.1777 55.457 27.1777C54.9831 27.1777 54.5547 27.0866 54.1719 26.9043C53.7891 26.722 53.486 26.4577 53.2627 26.1113C53.0394 25.765 52.9277 25.3594 52.9277 24.8945C52.9277 24.1198 53.1921 23.5752 53.7207 23.2607C54.2493 22.9463 54.9147 22.7617 55.7168 22.707C55.8079 22.6979 56.2454 22.6706 57.0293 22.625L57.8086 22.5977L57.8223 23.5547ZM63.8105 27.1504C63.127 27.1504 62.5277 26.9863 62.0127 26.6582C61.4977 26.3301 61.1035 25.8766 60.8301 25.2979C60.5566 24.7191 60.4199 24.0605 60.4199 23.3223C60.4199 22.5749 60.5612 21.9095 60.8438 21.3262C61.1263 20.7428 61.5205 20.2894 62.0264 19.9658C62.5322 19.6423 63.1178 19.4805 63.7832 19.4805C64.3118 19.4805 64.7881 19.5762 65.2119 19.7676C65.6357 19.959 65.9798 20.2324 66.2441 20.5879C66.5085 20.9434 66.6725 21.3535 66.7363 21.8184H65.5605C65.5059 21.5814 65.401 21.3649 65.2461 21.1689C65.0911 20.973 64.8929 20.8158 64.6514 20.6973C64.4098 20.5788 64.1296 20.5195 63.8105 20.5195C63.373 20.5195 62.988 20.6335 62.6553 20.8613C62.3226 21.0892 62.0628 21.4105 61.876 21.8252C61.6891 22.2399 61.5957 22.7253 61.5957 23.2812C61.5957 23.8464 61.6868 24.3408 61.8691 24.7646C62.0514 25.1885 62.3089 25.5166 62.6416 25.749C62.9743 25.9814 63.3639 26.0977 63.8105 26.0977C64.1022 26.0977 64.3688 26.0475 64.6104 25.9473C64.8519 25.847 65.0547 25.6989 65.2188 25.5029C65.3828 25.307 65.4967 25.0768 65.5605 24.8125H66.7363C66.6725 25.2591 66.513 25.6579 66.2578 26.0088C66.0026 26.3597 65.6654 26.6377 65.2461 26.8428C64.8268 27.0479 64.3483 27.1504 63.8105 27.1504ZM71.4258 20.5605H67.5566V19.5762H71.4258V20.5605ZM69.8672 17.7988V24.8672C69.8672 25.168 69.9105 25.3981 69.9971 25.5576C70.0837 25.7171 70.1976 25.8265 70.3389 25.8857C70.4801 25.945 70.6465 25.9746 70.8379 25.9746C71.0658 25.9746 71.2982 25.9655 71.5352 25.9473V27.041C71.2982 27.0775 71.0247 27.0957 70.7148 27.0957C70.3685 27.0957 70.0404 27.0228 69.7305 26.877C69.4206 26.7311 69.1676 26.5124 68.9717 26.2207C68.7757 25.929 68.6777 25.5781 68.6777 25.168V17.7988H69.8672Z" fill="white"/>
<path fill-rule="evenodd" clip-rule="evenodd" d="M94 22L88 28V16L94 22Z" fill="#333333"/>
</g>
<defs>
<filter id="filter0_d_8665_5837" x="0" y="0" width="100" height="48" filterUnits="userSpaceOnUse" color-interpolation-filters="sRGB">
<feFlood flood-opacity="0" result="BackgroundImageFix"/>
<feColorMatrix in="SourceAlpha" type="matrix" values="0 0 0 0 0 0 0 0 0 0 0 0 0 0 0 0 0 0 127 0" result="hardAlpha"/>
<feOffset dy="2"/>
<feGaussianBlur stdDeviation="3"/>
<feColorMatrix type="matrix" values="0 0 0 0 0.0666667 0 0 0 0 0.0666667 0 0 0 0 0.0666667 0 0 0 0.3 0"/>
<feBlend mode="normal" in2="BackgroundImageFix" result="effect1_dropShadow_8665_5837"/>
<feBlend mode="normal" in="SourceGraphic" in2="effect1_dropShadow_8665_5837" result="shape"/>
</filter>
</defs>
</svg>
