<svg width="106" height="48" viewBox="0 0 106 48" fill="none" xmlns="http://www.w3.org/2000/svg">
<g filter="url(#filter0_d_8665_5842)">
<rect x="6" y="4" width="88" height="36" rx="6" fill="#333333"/>
<path d="M22.644 24.438H35.37V25.278H22.644V24.438ZM26.158 16.514H35.286V17.284H26.158V16.514ZM31.282 23.472H32.29V27C32.29 27.2707 32.2527 27.4807 32.178 27.63C32.1033 27.7793 31.954 27.8913 31.73 27.966C31.506 28.0407 31.2073 28.0827 30.834 28.092C30.47 28.1107 29.9987 28.12 29.42 28.12C29.4013 27.98 29.3547 27.826 29.28 27.658C29.2147 27.4993 29.1447 27.35 29.07 27.21C29.3687 27.2193 29.6487 27.224 29.91 27.224C30.1713 27.2333 30.3953 27.2333 30.582 27.224C30.778 27.224 30.9133 27.224 30.988 27.224C31.1093 27.2147 31.1887 27.1913 31.226 27.154C31.2633 27.126 31.282 27.07 31.282 26.986V23.472ZM25.052 25.894L25.766 25.278C26.018 25.4273 26.2747 25.5953 26.536 25.782C26.8067 25.9687 27.0587 26.16 27.292 26.356C27.5347 26.552 27.726 26.734 27.866 26.902L27.096 27.574C26.9653 27.3967 26.7833 27.2053 26.55 27C26.326 26.804 26.0833 26.608 25.822 26.412C25.5607 26.216 25.304 26.0433 25.052 25.894ZM23.12 16.094L23.834 15.52C24.0673 15.6787 24.3053 15.8607 24.548 16.066C24.8 16.262 25.0333 16.4673 25.248 16.682C25.4627 16.8873 25.6307 17.0787 25.752 17.256L25.01 17.914C24.8887 17.7273 24.7253 17.5267 24.52 17.312C24.3147 17.0973 24.0907 16.8827 23.848 16.668C23.6053 16.4533 23.3627 16.262 23.12 16.094ZM27.88 15.45L28.734 15.24C28.902 15.436 29.0653 15.66 29.224 15.912C29.3827 16.164 29.4947 16.388 29.56 16.584L28.65 16.836C28.5847 16.6493 28.4773 16.4253 28.328 16.164C28.188 15.9027 28.0387 15.6647 27.88 15.45ZM28.258 19.734V20.35H33.102V19.734H28.258ZM28.258 20.924V21.554H33.102V20.924H28.258ZM28.258 18.558V19.174H33.102V18.558H28.258ZM27.278 17.984H34.124V22.128H27.278V17.984ZM25.528 18.894V21.904H24.562V19.734H22.714V18.894H25.528ZM30.106 16.794L31.156 16.892C31.0627 17.1533 30.9693 17.41 30.876 17.662C30.792 17.9047 30.7127 18.1147 30.638 18.292L29.798 18.166C29.8633 17.9607 29.924 17.7273 29.98 17.466C30.036 17.2047 30.078 16.9807 30.106 16.794ZM32.682 15.212L33.676 15.436C33.508 15.688 33.3353 15.9307 33.158 16.164C32.99 16.3973 32.8267 16.6027 32.668 16.78L31.842 16.57C31.982 16.374 32.1313 16.15 32.29 15.898C32.458 15.6367 32.5887 15.408 32.682 15.212ZM25.528 21.554C25.808 21.9553 26.1953 22.254 26.69 22.45C27.194 22.646 27.768 22.7533 28.412 22.772C28.7387 22.7813 29.1307 22.7907 29.588 22.8C30.0453 22.8 30.54 22.8 31.072 22.8C31.604 22.7907 32.136 22.7813 32.668 22.772C33.2093 22.7627 33.718 22.7487 34.194 22.73C34.6793 22.7113 35.104 22.6927 35.468 22.674C35.4213 22.7767 35.3653 22.912 35.3 23.08C35.244 23.248 35.2067 23.3973 35.188 23.528C34.7587 23.5467 34.2453 23.5607 33.648 23.57C33.0507 23.5793 32.4253 23.5887 31.772 23.598C31.128 23.598 30.512 23.598 29.924 23.598C29.336 23.5887 28.8367 23.5793 28.426 23.57C27.6887 23.542 27.054 23.43 26.522 23.234C25.99 23.038 25.5373 22.7253 25.164 22.296C24.828 22.5293 24.4827 22.7627 24.128 22.996C23.7733 23.2293 23.4093 23.4673 23.036 23.71L22.63 22.828C22.9567 22.66 23.3113 22.464 23.694 22.24C24.0767 22.016 24.45 21.7873 24.814 21.554H25.528ZM39.192 16.094H43.154V17.158H39.192V16.094ZM42.622 16.094H43.686C43.686 16.5047 43.7047 16.99 43.742 17.55C43.7793 18.11 43.8587 18.712 43.98 19.356C44.1013 19.9907 44.288 20.6533 44.54 21.344C44.792 22.0347 45.1327 22.7253 45.562 23.416C45.9913 24.0973 46.528 24.76 47.172 25.404C47.8253 26.048 48.614 26.6407 49.538 27.182C49.4633 27.2473 49.3653 27.3313 49.244 27.434C49.132 27.546 49.0247 27.658 48.922 27.77C48.8287 27.8913 48.7493 27.994 48.684 28.078C47.7507 27.5087 46.948 26.8833 46.276 26.202C45.6133 25.5113 45.058 24.7927 44.61 24.046C44.1713 23.2993 43.8167 22.5527 43.546 21.806C43.2847 21.05 43.084 20.322 42.944 19.622C42.8133 18.9127 42.7247 18.2547 42.678 17.648C42.6407 17.0413 42.622 16.5233 42.622 16.094ZM42.216 18.838L43.406 19.048C43.07 20.4667 42.6313 21.7453 42.09 22.884C41.558 24.0227 40.9093 25.026 40.144 25.894C39.388 26.7527 38.492 27.4853 37.456 28.092C37.4 28.0173 37.3113 27.9287 37.19 27.826C37.078 27.7233 36.9567 27.616 36.826 27.504C36.7047 27.4013 36.5973 27.3173 36.504 27.252C38.0627 26.4307 39.2993 25.32 40.214 23.92C41.1287 22.5107 41.796 20.8167 42.216 18.838ZM57.14 19.412H62.432V20.364H57.14V19.412ZM57.168 22.8H62.46V23.766H57.168V22.8ZM57.154 26.202H62.446V27.168H57.154V26.202ZM56.622 16.066H62.964V27.98H61.9V17.06H57.644V28.022H56.622V16.066ZM50.728 18.236H56.02V19.244H50.728V18.236ZM52.996 15.24H54.018V28.106H52.996V15.24ZM52.954 18.866L53.64 19.09C53.5093 19.6593 53.3507 20.2473 53.164 20.854C52.9773 21.4513 52.7627 22.044 52.52 22.632C52.2867 23.2107 52.0347 23.7473 51.764 24.242C51.5027 24.7273 51.232 25.1473 50.952 25.502C50.896 25.362 50.812 25.2033 50.7 25.026C50.588 24.8393 50.49 24.6807 50.406 24.55C50.658 24.2327 50.91 23.8593 51.162 23.43C51.4233 22.9913 51.6707 22.5153 51.904 22.002C52.1373 21.4887 52.3427 20.966 52.52 20.434C52.6973 19.8927 52.842 19.37 52.954 18.866ZM53.92 20.406C54.0227 20.4993 54.172 20.6627 54.368 20.896C54.5733 21.12 54.7927 21.3673 55.026 21.638C55.2687 21.8993 55.488 22.1467 55.684 22.38C55.88 22.604 56.0153 22.7673 56.09 22.87L55.446 23.724C55.3433 23.556 55.2033 23.346 55.026 23.094C54.8487 22.8327 54.6573 22.562 54.452 22.282C54.2467 21.9927 54.046 21.7267 53.85 21.484C53.6633 21.2413 53.5093 21.05 53.388 20.91L53.92 20.406ZM72.89 18.81L73.548 18.11C73.9867 18.362 74.4487 18.642 74.934 18.95C75.4193 19.258 75.8813 19.566 76.32 19.874C76.7587 20.182 77.118 20.4573 77.398 20.7L76.712 21.498C76.4413 21.246 76.0867 20.9613 75.648 20.644C75.2187 20.3267 74.7613 20.0093 74.276 19.692C73.7907 19.3653 73.3287 19.0713 72.89 18.81ZM73.632 21.064H74.164V23.066C74.164 23.234 74.1873 23.4487 74.234 23.71C74.29 23.9713 74.3833 24.2607 74.514 24.578C74.654 24.886 74.85 25.2033 75.102 25.53C75.354 25.8567 75.6807 26.1693 76.082 26.468C76.4833 26.7667 76.9733 27.0233 77.552 27.238C77.4587 27.3593 77.3467 27.504 77.216 27.672C77.0947 27.8493 77.0013 28.0033 76.936 28.134C76.3947 27.9193 75.928 27.658 75.536 27.35C75.144 27.042 74.8127 26.7153 74.542 26.37C74.2807 26.0247 74.0753 25.698 73.926 25.39C73.786 25.082 73.688 24.8253 73.632 24.62C73.576 24.8347 73.4687 25.096 73.31 25.404C73.1513 25.7027 72.9273 26.02 72.638 26.356C72.3487 26.692 71.98 27.014 71.532 27.322C71.0933 27.63 70.566 27.9007 69.95 28.134C69.9127 28.05 69.8567 27.9567 69.782 27.854C69.7073 27.7513 69.6327 27.6487 69.558 27.546C69.4833 27.4433 69.4133 27.3593 69.348 27.294C69.992 27.07 70.538 26.8087 70.986 26.51C71.434 26.202 71.7933 25.8847 72.064 25.558C72.344 25.222 72.5587 24.8953 72.708 24.578C72.8667 24.2607 72.9693 23.9713 73.016 23.71C73.072 23.4487 73.1 23.234 73.1 23.066V21.064H73.632ZM73.184 15.24H74.234C74.1967 16.08 74.1173 16.836 73.996 17.508C73.884 18.18 73.6927 18.7773 73.422 19.3C73.1607 19.8133 72.7827 20.2613 72.288 20.644C71.8027 21.0267 71.1633 21.3487 70.37 21.61C70.314 21.4887 70.2253 21.344 70.104 21.176C69.992 21.008 69.88 20.8773 69.768 20.784C70.496 20.56 71.0747 20.2847 71.504 19.958C71.9427 19.6313 72.2787 19.244 72.512 18.796C72.7453 18.348 72.9087 17.83 73.002 17.242C73.0953 16.654 73.156 15.9867 73.184 15.24ZM71.112 16.178L71.994 16.36C71.9287 16.8267 71.798 17.2933 71.602 17.76C71.4153 18.2267 71.1587 18.6047 70.832 18.894L70.02 18.488C70.3093 18.2453 70.5473 17.914 70.734 17.494C70.9207 17.0647 71.0467 16.626 71.112 16.178ZM70.986 22.198L71.91 22.394C71.8167 22.926 71.6533 23.444 71.42 23.948C71.196 24.4427 70.8927 24.844 70.51 25.152L69.67 24.662C70.0153 24.41 70.2953 24.06 70.51 23.612C70.734 23.164 70.8927 22.6927 70.986 22.198ZM76.124 16.108L77.132 16.458C76.908 16.8593 76.67 17.2653 76.418 17.676C76.166 18.0773 75.9327 18.4227 75.718 18.712L74.934 18.39C75.074 18.1847 75.2187 17.9467 75.368 17.676C75.5173 17.4053 75.6573 17.13 75.788 16.85C75.928 16.57 76.04 16.3227 76.124 16.108ZM76.278 22.1L77.3 22.464C77.0573 22.884 76.8007 23.318 76.53 23.766C76.2593 24.214 76.0027 24.5873 75.76 24.886L74.962 24.564C75.1113 24.3493 75.2653 24.0973 75.424 23.808C75.592 23.5187 75.7507 23.2247 75.9 22.926C76.0493 22.6273 76.1753 22.352 76.278 22.1ZM65.19 19.482H69.292V20.308H65.19V19.482ZM65.246 15.73H69.236V16.57H65.246V15.73ZM65.19 21.344H69.292V22.184H65.19V21.344ZM64.532 17.564H69.754V18.446H64.532V17.564ZM65.666 23.234H69.306V27.322H65.666V26.454H68.382V24.116H65.666V23.234ZM65.176 23.234H66.1V27.966H65.176V23.234Z" fill="white"/>
<path fill-rule="evenodd" clip-rule="evenodd" d="M100 22L94 28V16L100 22Z" fill="#333333"/>
</g>
<defs>
<filter id="filter0_d_8665_5842" x="0" y="0" width="106" height="48" filterUnits="userSpaceOnUse" color-interpolation-filters="sRGB">
<feFlood flood-opacity="0" result="BackgroundImageFix"/>
<feColorMatrix in="SourceAlpha" type="matrix" values="0 0 0 0 0 0 0 0 0 0 0 0 0 0 0 0 0 0 127 0" result="hardAlpha"/>
<feOffset dy="2"/>
<feGaussianBlur stdDeviation="3"/>
<feColorMatrix type="matrix" values="0 0 0 0 0.0666667 0 0 0 0 0.0666667 0 0 0 0 0.0666667 0 0 0 0.3 0"/>
<feBlend mode="normal" in2="BackgroundImageFix" result="effect1_dropShadow_8665_5842"/>
<feBlend mode="normal" in="SourceGraphic" in2="effect1_dropShadow_8665_5842" result="shape"/>
</filter>
</defs>
</svg>
