<svg width="186" height="24" viewBox="0 0 186 24" fill="none" xmlns="http://www.w3.org/2000/svg">
<path d="M107.555 1.95312V5.75526H98.275V22.0795H94.0455V5.75526H84.7656V1.95312H107.555Z" fill="#F9F9F9"/>
<path d="M79.8609 1.95312H58.8672V5.75526H79.8609V1.95312Z" fill="#F9F9F9"/>
<path d="M79.8609 18.2773H58.8672V22.0795H79.8609V18.2773Z" fill="#F9F9F9"/>
<path d="M79.8609 10.0977H58.8672V13.8998H79.8609V10.0977Z" fill="#F9F9F9"/>
<path d="M169.199 7.33364V22.0779H165.008V6.40214C165.008 3.53151 166.654 1.95312 169.649 1.95312H186.001V5.75526H170.846C169.798 5.75526 169.199 6.32908 169.199 7.33364Z" fill="#F9F9F9"/>
<path d="M129.524 13.2542L118.11 8.4475C117.286 8.08829 116.24 7.69408 116.463 6.68951C116.687 5.68494 117.848 5.75648 118.485 5.75648H132.48V1.95435L117.362 1.88281C115.379 1.88281 113.171 2.20549 111.935 4.3577C110.738 6.43837 111.224 9.56013 114.63 10.9939L127.202 16.3029C128.4 16.8052 128.101 18.2755 126.717 18.2755H111.935V22.0776H127.801C130.346 22.0776 132.404 20.965 132.889 18.8493C133.413 16.6256 132.702 14.5799 129.522 13.2527L129.524 13.2542Z" fill="#F9F9F9"/>
<path d="M155.202 22.0795H142.367C139.373 22.0795 137.727 20.5011 137.727 17.6304V1.95312H141.918V16.6624C141.918 17.667 142.517 18.2408 143.564 18.2408H154.005C155.053 18.2408 155.651 17.667 155.651 16.6624V1.95312H159.843V17.6304C159.843 20.5011 158.196 22.0795 155.202 22.0795Z" fill="#F9F9F9"/>
<path d="M32.9766 17.6304L33.0147 1.95312H37.2061V16.6974C37.2061 17.702 37.8046 18.2758 38.8525 18.2758H54.0083V22.0779H37.6554C34.6246 22.0779 32.9782 20.4996 32.9782 17.6289L32.9766 17.6304Z" fill="#F9F9F9"/>
<path d="M3.24677 11.9994C3.24677 14.4789 2.52121 16.4911 1.62259 16.4911C0.723974 16.4911 0 14.4789 0 11.9994C0 9.51999 0.725562 7.50781 1.62259 7.50781C2.51962 7.50781 3.24677 9.51847 3.24677 11.9994Z" fill="#F9F9F9"/>
<path d="M25.0341 12C25.0341 18.6271 19.4296 24 12.517 24H12.4868C12.4709 24 12.4535 24 12.4376 24C11.404 23.9132 10.5181 21.1294 10.1037 17.1324C10.0862 16.9619 10.0688 16.7884 10.0529 16.6134C9.56073 20.1598 8.51446 22.6043 7.30466 22.6043C5.61856 22.6043 4.25 17.8584 4.25 12.0015C4.25 6.1446 5.61698 1.39574 7.30308 1.39574C8.51287 1.39574 9.55914 3.84171 10.0513 7.38813C10.0672 7.21309 10.0847 7.03957 10.1021 6.8691C10.5165 2.87215 11.4024 0.086758 12.436 0C12.4519 0 12.4693 0 12.4852 0H12.5154C19.4281 0 25.0325 5.37138 25.0325 12H25.0341Z" fill="#F9F9F9"/>
</svg>
