<svg width="328" height="220" viewBox="0 0 328 220" fill="none" xmlns="http://www.w3.org/2000/svg">
<g clip-path="url(#clip0_431_12522)">
<circle cx="62.0737" cy="62.0737" r="62.0737" transform="matrix(1 0 0 -1 40.1094 165.877)" fill="url(#paint0_linear_431_12522)"/>
<circle cx="62.0737" cy="62.0737" r="62.0737" transform="matrix(1 0 0 -1 164.305 165.877)" fill="url(#paint1_linear_431_12522)"/>
<circle cx="62.0737" cy="62.0737" r="62.0737" transform="matrix(1 0 0 -1 103.004 165.877)" fill="url(#paint2_linear_431_12522)"/>
<circle cx="62.0737" cy="62.0737" r="62.0737" transform="matrix(1 0 0 -1 103.004 165.877)" stroke="url(#paint3_linear_431_12522)"/>
<path d="M40.4102 104.323H288.705" stroke="white" stroke-width="0.7" stroke-dasharray="1.86 1.86"/>
<circle cx="62.0737" cy="62.0737" r="62.0737" transform="matrix(1 0 0 -1 40.1094 165.877)" stroke="white"/>
<circle cx="62.0737" cy="62.0737" r="62.0737" transform="matrix(1 0 0 -1 164.305 165.877)" stroke="white" stroke-width="0.9"/>
<circle cx="123.266" cy="123.266" r="123.266" transform="matrix(1 0 0 -1 164.305 227.007)" stroke="white" stroke-width="0.7" stroke-dasharray="1.86 1.86"/>
<circle cx="123.266" cy="123.266" r="123.266" transform="matrix(1 0 0 -1 -82.2246 227.007)" stroke="white" stroke-width="0.7" stroke-dasharray="1.86 1.86"/>
<circle cx="2.79443" cy="2.79443" r="2.79443" transform="matrix(1 0 0 -1 37.6289 107.158)" fill="#00C781" stroke="white" stroke-width="0.931477"/>
<circle cx="2.79443" cy="2.79443" r="2.79443" transform="matrix(1 0 0 -1 192.252 52.5117)" fill="#00C781" stroke="white" stroke-width="0.931477"/>
<circle cx="2.79443" cy="2.79443" r="2.79443" transform="matrix(1 0 0 -1 130.773 160.559)" fill="#00C781" stroke="white" stroke-width="0.931477"/>
<circle cx="2.79443" cy="2.79443" r="2.79443" transform="matrix(1 0 0 -1 286.02 107.158)" fill="#00C781" stroke="white" stroke-width="0.931477"/>
</g>
<defs>
<linearGradient id="paint0_linear_431_12522" x1="0.931478" y1="53.9431" x2="124.818" y2="53.9431" gradientUnits="userSpaceOnUse">
<stop stop-color="#A7F5D2"/>
<stop offset="1" stop-color="#42E6AD"/>
</linearGradient>
<linearGradient id="paint1_linear_431_12522" x1="0.931478" y1="53.9431" x2="124.818" y2="53.9431" gradientUnits="userSpaceOnUse">
<stop stop-color="#42E6AD"/>
<stop offset="1" stop-color="#A7F5D2"/>
</linearGradient>
<linearGradient id="paint2_linear_431_12522" x1="78.6903" y1="1.89934" x2="47.3305" y2="119.886" gradientUnits="userSpaceOnUse">
<stop stop-color="#0B7A68"/>
<stop offset="1" stop-color="#00CE99"/>
</linearGradient>
<linearGradient id="paint3_linear_431_12522" x1="31.8059" y1="115.229" x2="94.8359" y2="7.17771" gradientUnits="userSpaceOnUse">
<stop stop-color="#9AFFD3"/>
<stop offset="1" stop-color="white"/>
</linearGradient>
<clipPath id="clip0_431_12522">
<rect width="290" height="200" fill="white" transform="translate(19 3)"/>
</clipPath>
</defs>
</svg>
