<svg width="328" height="220" viewBox="0 0 328 220" fill="none" xmlns="http://www.w3.org/2000/svg">
<g clip-path="url(#clip0_431_12546)">
<g clip-path="url(#clip1_431_12546)">
<circle cx="164.062" cy="110.063" r="154.851" transform="rotate(-90 164.062 110.063)" fill="#006F61"/>
<g filter="url(#filter0_f_431_12546)">
<circle cx="165.037" cy="110.263" r="153.483" transform="rotate(-90 165.037 110.263)" fill="#014A41"/>
</g>
<circle cx="164.062" cy="110.063" r="154.851" transform="rotate(-90 164.062 110.063)" stroke="url(#paint0_linear_431_12546)" stroke-width="0.651731" stroke-dasharray="1.96 1.96"/>
<circle cx="163.93" cy="109.934" r="103.234" transform="rotate(-90 163.93 109.934)" fill="#00A269"/>
<g filter="url(#filter1_f_431_12546)">
<circle cx="164.58" cy="110.067" r="102.322" transform="rotate(-90 164.58 110.067)" fill="#014A41"/>
</g>
<circle cx="163.93" cy="109.934" r="103.234" transform="rotate(-90 163.93 109.934)" stroke="url(#paint1_linear_431_12546)" stroke-width="0.651731"/>
<circle cx="163.809" cy="109.807" r="51.6171" transform="rotate(-90 163.809 109.807)" fill="#37DD92"/>
<g filter="url(#filter2_f_431_12546)">
<circle cx="164.134" cy="109.873" r="51.1609" transform="rotate(-90 164.134 109.873)" fill="#014A41"/>
</g>
<circle cx="163.809" cy="109.807" r="51.6171" transform="rotate(-90 163.809 109.807)" stroke="url(#paint2_linear_431_12546)" stroke-width="0.977597"/>
<circle cx="163.671" cy="110.002" r="11.7312" transform="rotate(-90 163.671 110.002)" fill="url(#paint3_linear_431_12546)"/>
<circle cx="2.93279" cy="2.93279" r="2.93279" transform="matrix(1 0 0 -1 294.016 192.291)" fill="#013F37" stroke="#41F1AF" stroke-width="0.651731"/>
<circle cx="2.93279" cy="2.93279" r="2.93279" transform="matrix(1 0 0 -1 243.18 50.8643)" fill="#013F37" stroke="#41F1AF" stroke-width="0.651731"/>
<circle cx="2.93279" cy="2.93279" r="2.93279" transform="matrix(1 0 0 -1 68.5137 159.052)" fill="#013F37" stroke="#41F1AF" stroke-width="0.651731"/>
<circle cx="2.93279" cy="2.93279" r="2.93279" transform="matrix(1 0 0 -1 98.4961 30.6609)" fill="#013F37" stroke="#41F1AF" stroke-width="0.651731"/>
</g>
</g>
<defs>
<filter id="filter0_f_431_12546" x="-27.5492" y="-82.3238" width="385.173" height="385.173" filterUnits="userSpaceOnUse" color-interpolation-filters="sRGB">
<feFlood flood-opacity="0" result="BackgroundImageFix"/>
<feBlend mode="normal" in="SourceGraphic" in2="BackgroundImageFix" result="shape"/>
<feGaussianBlur stdDeviation="19.5519" result="effect1_foregroundBlur_431_12546"/>
</filter>
<filter id="filter1_f_431_12546" x="29.6713" y="-24.8412" width="269.818" height="269.817" filterUnits="userSpaceOnUse" color-interpolation-filters="sRGB">
<feFlood flood-opacity="0" result="BackgroundImageFix"/>
<feBlend mode="normal" in="SourceGraphic" in2="BackgroundImageFix" result="shape"/>
<feGaussianBlur stdDeviation="16.2933" result="effect1_foregroundBlur_431_12546"/>
</filter>
<filter id="filter2_f_431_12546" x="94.7242" y="40.4634" width="138.819" height="138.819" filterUnits="userSpaceOnUse" color-interpolation-filters="sRGB">
<feFlood flood-opacity="0" result="BackgroundImageFix"/>
<feBlend mode="normal" in="SourceGraphic" in2="BackgroundImageFix" result="shape"/>
<feGaussianBlur stdDeviation="9.12424" result="effect1_foregroundBlur_431_12546"/>
</filter>
<linearGradient id="paint0_linear_431_12546" x1="164.062" y1="663.103" x2="164.063" y2="-146.548" gradientUnits="userSpaceOnUse">
<stop stop-color="#99FFD1"/>
<stop offset="1" stop-color="#00E695"/>
</linearGradient>
<linearGradient id="paint1_linear_431_12546" x1="163.93" y1="478.628" x2="163.93" y2="-61.1396" gradientUnits="userSpaceOnUse">
<stop stop-color="#99FFD1"/>
<stop offset="1" stop-color="#00E695"/>
</linearGradient>
<linearGradient id="paint2_linear_431_12546" x1="163.809" y1="294.154" x2="163.809" y2="24.27" gradientUnits="userSpaceOnUse">
<stop stop-color="#99FFD1"/>
<stop offset="1" stop-color="#00E695"/>
</linearGradient>
<linearGradient id="paint3_linear_431_12546" x1="171.166" y1="100.552" x2="150.237" y2="111.822" gradientUnits="userSpaceOnUse">
<stop stop-color="#00E695"/>
<stop offset="1" stop-color="#99FFD1"/>
</linearGradient>
<clipPath id="clip0_431_12546">
<rect width="328" height="220" fill="white"/>
</clipPath>
<clipPath id="clip1_431_12546">
<rect width="320" height="257.434" fill="white" transform="translate(4 -18.7148)"/>
</clipPath>
</defs>
</svg>
