<svg width="127" height="48" viewBox="0 0 127 48" fill="none" xmlns="http://www.w3.org/2000/svg">
<g filter="url(#filter0_d_127_123)">
<rect x="6" y="4" width="109" height="36" rx="6" fill="#333333"/>
<path d="M33.1973 22.5293H24.8027V21.6543H33.1973V22.5293ZM34.5098 26.5762H23.3809V25.6738H34.5098V26.5762ZM29.4375 26.043H28.3848V22.0371H29.4375V26.043ZM33.0742 17.8262H25.8828V22.0645H24.8027V16.9512H33.0742V17.8262ZM45.5156 22.4746H44.4492V15.9531H45.5156V22.4746ZM38.707 24.5664H44.4492V23.0898H45.5156V27.9434H37.6406V23.0898H38.707V24.5664ZM44.4492 27.0684V25.4277H38.707V27.0684H44.4492ZM38.9531 16.5547C39.5638 16.5456 40.1107 16.6572 40.5938 16.8896C41.0768 17.1221 41.4551 17.4525 41.7285 17.8809C42.002 18.3092 42.1387 18.7969 42.1387 19.3438C42.1387 19.8815 42.002 20.3623 41.7285 20.7861C41.4551 21.21 41.0768 21.5404 40.5938 21.7773C40.1107 22.0143 39.5638 22.1328 38.9531 22.1328C38.3424 22.1328 37.7956 22.0143 37.3125 21.7773C36.8294 21.5404 36.4512 21.21 36.1777 20.7861C35.9043 20.3623 35.7676 19.8815 35.7676 19.3438C35.7676 18.7969 35.9043 18.3092 36.1777 17.8809C36.4512 17.4525 36.8294 17.1221 37.3125 16.8896C37.7956 16.6572 38.3424 16.5456 38.9531 16.5547ZM38.9531 17.457C38.543 17.4479 38.1761 17.5254 37.8525 17.6895C37.529 17.8535 37.276 18.0791 37.0938 18.3662C36.9115 18.6533 36.8203 18.9792 36.8203 19.3438C36.8203 19.7083 36.9115 20.0342 37.0938 20.3213C37.276 20.6084 37.529 20.834 37.8525 20.998C38.1761 21.1621 38.543 21.2441 38.9531 21.2441C39.3633 21.2441 39.7301 21.1621 40.0537 20.998C40.3773 20.834 40.6302 20.6084 40.8125 20.3213C40.9948 20.0342 41.0859 19.7083 41.0859 19.3438C41.0859 18.9792 40.9948 18.6533 40.8125 18.3662C40.6302 18.0791 40.3773 17.8535 40.0537 17.6895C39.7301 17.5254 39.3633 17.4479 38.9531 17.457ZM62.209 23.0625H51.0801V22.1738H62.209V23.0625ZM57.2598 25.5508H56.1934V22.7207H57.2598V25.5508ZM60.7598 20.7793H52.5293V16.5547H60.7598V20.7793ZM53.582 19.918H59.6934V17.4023H53.582V19.918ZM60.9648 27.8477H52.502V26.9453H60.9648V27.8477ZM53.582 27.2598H52.502V24.3477H53.582V27.2598ZM67.1719 16.8418C67.8099 16.8418 68.375 16.9626 68.8672 17.2041C69.3594 17.4456 69.7445 17.7829 70.0225 18.2158C70.3005 18.6488 70.4395 19.1432 70.4395 19.6992C70.4395 20.2552 70.3005 20.7497 70.0225 21.1826C69.7445 21.6156 69.3594 21.9528 68.8672 22.1943C68.375 22.4359 67.8099 22.5566 67.1719 22.5566C66.543 22.5566 65.9779 22.4359 65.4766 22.1943C64.9753 21.9528 64.5856 21.6156 64.3076 21.1826C64.0296 20.7497 63.8906 20.2552 63.8906 19.6992C63.8906 19.1432 64.0296 18.6488 64.3076 18.2158C64.5856 17.7829 64.9753 17.4456 65.4766 17.2041C65.9779 16.9626 66.543 16.8418 67.1719 16.8418ZM67.1719 17.7852C66.7435 17.7852 66.3607 17.8649 66.0234 18.0244C65.6862 18.1839 65.4219 18.4095 65.2305 18.7012C65.0391 18.9928 64.9434 19.3255 64.9434 19.6992C64.9434 20.0729 65.0391 20.4033 65.2305 20.6904C65.4219 20.9775 65.6862 21.2031 66.0234 21.3672C66.3607 21.5312 66.7435 21.6133 67.1719 21.6133C67.6003 21.6133 67.9831 21.5312 68.3203 21.3672C68.6576 21.2031 68.9196 20.9775 69.1064 20.6904C69.2933 20.4033 69.3867 20.0729 69.3867 19.6992C69.3867 19.3255 69.2933 18.9928 69.1064 18.7012C68.9196 18.4095 68.6576 18.1839 68.3203 18.0244C67.9831 17.8649 67.6003 17.7852 67.1719 17.7852ZM73.1602 28.1348H72.0938V15.9531H73.1602V28.1348ZM63.2617 24.5391C64.2734 24.5391 65.1917 24.5299 66.0166 24.5117C66.8415 24.4935 67.7188 24.4548 68.6484 24.3955C69.5781 24.3363 70.4577 24.2474 71.2871 24.1289L71.3691 24.9219C70.5124 25.0768 69.6237 25.193 68.7031 25.2705C67.7826 25.348 66.9189 25.3981 66.1123 25.4209C65.3057 25.4437 64.4056 25.4551 63.4121 25.4551L63.2617 24.5391ZM84.6992 28.1074H83.6328V15.9531H84.6992V28.1074ZM86.7363 21.8594H84.4531V20.9707H86.7363V21.8594ZM82.457 18.7969H75.2246V17.9082H82.457V18.7969ZM78.9023 19.8086C79.4766 19.8086 79.9893 19.9271 80.4404 20.1641C80.8916 20.401 81.2448 20.7314 81.5 21.1553C81.7552 21.5791 81.8828 22.0599 81.8828 22.5977C81.8828 23.1354 81.7552 23.6162 81.5 24.04C81.2448 24.4639 80.8916 24.7943 80.4404 25.0312C79.9893 25.2682 79.4766 25.3867 78.9023 25.3867C78.3281 25.3867 77.8154 25.2682 77.3643 25.0312C76.9131 24.7943 76.5599 24.4639 76.3047 24.04C76.0495 23.6162 75.9219 23.1354 75.9219 22.5977C75.9219 22.0599 76.0495 21.5791 76.3047 21.1553C76.5599 20.7314 76.9131 20.401 77.3643 20.1641C77.8154 19.9271 78.3281 19.8086 78.9023 19.8086ZM78.9023 20.7109C78.5286 20.7109 78.1937 20.7907 77.8975 20.9502C77.6012 21.1097 77.3688 21.333 77.2002 21.6201C77.0316 21.9072 76.9473 22.2331 76.9473 22.5977C76.9473 22.9622 77.0316 23.2858 77.2002 23.5684C77.3688 23.8509 77.6012 24.0719 77.8975 24.2314C78.1937 24.391 78.5286 24.4707 78.9023 24.4707C79.276 24.4707 79.611 24.391 79.9072 24.2314C80.2035 24.0719 80.4359 23.8509 80.6045 23.5684C80.7731 23.2858 80.8574 22.9622 80.8574 22.5977C80.8574 22.2331 80.7731 21.9072 80.6045 21.6201C80.4359 21.333 80.2035 21.1097 79.9072 20.9502C79.611 20.7907 79.276 20.7109 78.9023 20.7109ZM79.4219 18.3184H78.3555V16.1035H79.4219V18.3184ZM97.4414 28.1074H96.3613V15.9531H97.4414V28.1074ZM93.8457 17.2793C93.8457 18.4824 93.6475 19.6081 93.251 20.6562C92.8545 21.7044 92.2324 22.6683 91.3848 23.5479C90.5371 24.4274 89.4525 25.1862 88.1309 25.8242L87.543 24.9492C88.7188 24.3932 89.694 23.7393 90.4688 22.9873C91.2435 22.2354 91.8223 21.3945 92.2051 20.4648C92.5879 19.5352 92.7793 18.528 92.7793 17.4434V17.2793H93.8457ZM93.2168 18.1543H88.1035V17.2793H93.2168V18.1543Z" fill="white"/>
<path fill-rule="evenodd" clip-rule="evenodd" d="M121 22L115 28V16L121 22Z" fill="#333333"/>
</g>
<defs>
<filter id="filter0_d_127_123" x="0" y="0" width="127" height="48" filterUnits="userSpaceOnUse" color-interpolation-filters="sRGB">
<feFlood flood-opacity="0" result="BackgroundImageFix"/>
<feColorMatrix in="SourceAlpha" type="matrix" values="0 0 0 0 0 0 0 0 0 0 0 0 0 0 0 0 0 0 127 0" result="hardAlpha"/>
<feOffset dy="2"/>
<feGaussianBlur stdDeviation="3"/>
<feColorMatrix type="matrix" values="0 0 0 0 0.0666667 0 0 0 0 0.0666667 0 0 0 0 0.0666667 0 0 0 0.3 0"/>
<feBlend mode="normal" in2="BackgroundImageFix" result="effect1_dropShadow_127_123"/>
<feBlend mode="normal" in="SourceGraphic" in2="effect1_dropShadow_127_123" result="shape"/>
</filter>
</defs>
</svg>
